<svg width="24" height="24" viewBox="0 0 24 24" fill="none" xmlns="http://www.w3.org/2000/svg">
<path fill-rule="evenodd" clip-rule="evenodd" d="M12.0001 9.375C12.4143 9.375 12.7501 9.71079 12.7501 10.125L12.7501 20.25C12.7501 20.6642 12.4143 21 12.0001 21C11.5859 21 11.2501 20.6642 11.2501 20.25L11.2501 10.125C11.2501 9.71079 11.5859 9.375 12.0001 9.375Z" fill="white"/>
<path fill-rule="evenodd" clip-rule="evenodd" d="M12.0001 3C12.4143 3 12.7501 3.33579 12.7501 3.75L12.7501 6.375C12.7501 6.78922 12.4143 7.125 12.0001 7.125C11.5859 7.125 11.2501 6.78921 11.2501 6.375L11.2501 3.75C11.2501 3.33578 11.5859 3 12.0001 3Z" fill="white"/>
<path fill-rule="evenodd" clip-rule="evenodd" d="M12.0001 7.125C11.3788 7.125 10.8751 7.62868 10.8751 8.25C10.8751 8.87132 11.3788 9.375 12.0001 9.375C12.6214 9.375 13.1251 8.87132 13.1251 8.25C13.1251 7.62868 12.6214 7.125 12.0001 7.125ZM9.37509 8.25C9.37509 6.80025 10.5503 5.625 12.0001 5.625C13.4498 5.625 14.6251 6.80025 14.6251 8.25C14.6251 9.69975 13.4498 10.875 12.0001 10.875C10.5503 10.875 9.37509 9.69975 9.37509 8.25Z" fill="white"/>
<path fill-rule="evenodd" clip-rule="evenodd" d="M18.7501 16.875C19.1643 16.875 19.5001 17.2108 19.5001 17.625L19.5002 20.25C19.5002 20.6642 19.1644 21 18.7502 21C18.336 21 18.0002 20.6642 18.0002 20.25L18.0001 17.625C18.0001 17.2108 18.3358 16.875 18.7501 16.875Z" fill="white"/>
<path fill-rule="evenodd" clip-rule="evenodd" d="M18.7502 3C19.1644 3 19.5002 3.33579 19.5002 3.75001L19.5001 13.875C19.5001 14.2892 19.1643 14.625 18.7501 14.625C18.3359 14.625 18.0001 14.2892 18.0001 13.875L18.0002 3.74999C18.0002 3.33578 18.336 3 18.7502 3Z" fill="white"/>
<path fill-rule="evenodd" clip-rule="evenodd" d="M18.7501 14.625C18.1288 14.625 17.6251 15.1287 17.6251 15.75C17.6251 16.3713 18.1288 16.875 18.7501 16.875C19.3714 16.875 19.8751 16.3713 19.8751 15.75C19.8751 15.1287 19.3714 14.625 18.7501 14.625ZM16.1251 15.75C16.1251 14.3003 17.3003 13.125 18.7501 13.125C20.1998 13.125 21.3751 14.3003 21.3751 15.75C21.3751 17.1997 20.1998 18.375 18.7501 18.375C17.3003 18.375 16.1251 17.1997 16.1251 15.75Z" fill="white"/>
<path fill-rule="evenodd" clip-rule="evenodd" d="M5.25012 13.875C5.66434 13.875 6.00012 14.2108 6.00011 14.625L6.00004 20.25C6.00003 20.6642 5.66424 21 5.25003 21C4.83581 21 4.50003 20.6642 4.50004 20.25L4.50011 14.625C4.50012 14.2108 4.83591 13.875 5.25012 13.875Z" fill="white"/>
<path fill-rule="evenodd" clip-rule="evenodd" d="M5.25003 3C5.66424 3 6.00003 3.33578 6.00004 3.74999L6.00011 10.875C6.00012 11.2892 5.66433 11.625 5.25012 11.625C4.83591 11.625 4.50012 11.2892 4.50011 10.875L4.50004 3.75001C4.50003 3.33579 4.83582 3 5.25003 3Z" fill="white"/>
<path fill-rule="evenodd" clip-rule="evenodd" d="M5.25009 11.625C4.62877 11.625 4.12509 12.1287 4.12509 12.75C4.12509 13.3713 4.62877 13.875 5.25009 13.875C5.87141 13.875 6.37509 13.3713 6.37509 12.75C6.37509 12.1287 5.87141 11.625 5.25009 11.625ZM2.62509 12.75C2.62509 11.3003 3.80034 10.125 5.25009 10.125C6.69984 10.125 7.87509 11.3003 7.87509 12.75C7.87509 14.1997 6.69984 15.375 5.25009 15.375C3.80034 15.375 2.62509 14.1997 2.62509 12.75Z" fill="white"/>
</svg>
