<svg width="24" height="24" viewBox="0 0 24 24" fill="none" xmlns="http://www.w3.org/2000/svg">
<path d="M9.25 14.9996C9.2498 15.2259 9.31109 15.4481 9.42734 15.6424C9.54358 15.8366 9.7104 15.9956 9.90999 16.1024C10.1096 16.2093 10.3344 16.2598 10.5605 16.2488C10.7865 16.2378 11.0052 16.1656 11.1934 16.04L10.5362 8.2506C10.4005 8.24398 10.2656 8.27433 10.1459 8.3384C10.0262 8.40248 9.92611 8.49787 9.85638 8.6144C9.78665 8.73092 9.74988 8.8642 9.75 9H9.25V9.00044V14.9996ZM9.25 14.9996L9.75 15H9.25V14.9996ZM6.86097 4.30891C8.38205 3.29256 10.1703 2.75006 11.9997 2.75C14.4521 2.75291 16.8033 3.72842 18.5374 5.46256C20.2716 7.19677 21.2472 9.54804 21.25 12.0006C21.2499 13.8299 20.7074 15.618 19.6911 17.139C18.6747 18.6602 17.23 19.8458 15.5398 20.5459C13.8496 21.246 11.9897 21.4292 10.1954 21.0723C8.40109 20.7153 6.75289 19.8344 5.45926 18.5407C4.16562 17.2471 3.28465 15.5989 2.92773 13.8046C2.57082 12.0103 2.754 10.1504 3.45411 8.46018C4.15422 6.76996 5.33982 5.32531 6.86097 4.30891ZM11.1937 7.9602C11.1937 7.96017 11.1936 7.96014 11.1936 7.96011L11.1937 16.0398L15.6933 13.0401C15.6934 13.0401 15.6934 13.0401 15.6934 13.04C15.8646 12.9259 16.005 12.7713 16.1021 12.5898C16.1992 12.4084 16.25 12.2058 16.25 12C16.25 11.7942 16.1992 11.5916 16.1021 11.4102C16.005 11.2287 15.8646 11.0741 15.6934 10.96C15.6934 10.9599 15.6934 10.9599 15.6933 10.9599L11.1937 7.9602Z" stroke="#00BEBE"/>
</svg>
